<?xml version="1.0" encoding="UTF-8"?>
<svg enable-background="new 0 0 300 300" version="1.1" viewBox="0 0 300 300" xml:space="preserve" xmlns="http://www.w3.org/2000/svg" xmlns:cc="http://creativecommons.org/ns#" xmlns:dc="http://purl.org/dc/elements/1.1/" xmlns:rdf="http://www.w3.org/1999/02/22-rdf-syntax-ns#"><metadata><rdf:RDF><cc:Work rdf:about=""><dc:format>image/svg+xml</dc:format><dc:type rdf:resource="http://purl.org/dc/dcmitype/StillImage"/><dc:title/></cc:Work></rdf:RDF></metadata><g>
<circle cx="149" cy="149.51" r="157.52" stroke-width="23.142"/><g fill="#fff">
	<g fill="#fff">
		<g fill="#fff">
			<path d="m221.76 89.414h-143.51c-1.432 0-2.594 1.162-2.594 2.594v95.963c0 1.432 1.162 2.594 2.594 2.594h143.51c1.432 0 2.594-1.162 2.594-2.594v-95.964c0-1.431-1.162-2.593-2.594-2.593z"/>
			<path d="m150 0c-82.839 0-150 67.161-150 150s67.156 150 150 150 150-67.163 150-150-67.164-150-150-150zm92.508 187.97c0 11.458-9.29 20.749-20.749 20.749h-47.144v11.588h23.801c4.298 0 7.781 3.483 7.781 7.781s-3.483 7.781-7.781 7.781h-96.826c-4.298 0-7.781-3.483-7.781-7.781s3.483-7.781 7.781-7.781h23.801v-11.588h-47.145c-11.458 0-20.749-9.29-20.749-20.749v-95.963c0-11.458 9.29-20.749 20.749-20.749h143.51c11.458 0 20.749 9.29 20.749 20.749v95.963z"/>
		</g>
	</g>
</g>















<path d="m98.289 234.83c-4.6886-2.4746-5.657-8.3245-1.9852-11.991 2.2721-2.2687 2.8806-2.354 16.78-2.354h12.338v-11.928l-24.488-6e-3c-26.975-7e-3 -27.199-0.0226-31.753-2.2225-3.1592-1.5262-7.4639-5.6978-9.0759-8.7953-2.4035-4.6185-2.2738-1.3359-2.2738-57.536 0-56.539-0.16057-52.752 2.4476-57.731 1.7117-3.2679 4.981-6.5271 8.2933-8.2677 4.9841-2.619-1.4063-2.4283 81.361-2.4283 82.967 0 76.474-0.19647 81.573 2.4681 4.702 2.4571 8.7254 7.5957 10.11 12.912 0.81162 3.116 0.82968 103 0.0192 106.05-1.9762 7.426-8.2826 13.469-15.696 15.04-1.9076 0.40435-7.2896 0.50687-26.873 0.51189l-24.488 6e-3v11.902l12.922 0.10338c12.259 0.0981 12.995 0.14178 14.348 0.85171 3.0675 1.6092 4.7204 5.1861 3.8684 8.3716-0.55929 2.0911-1.7647 3.7292-3.5703 4.8518l-1.3632 0.84752-100.89 0.1906zm125.28-44.871 0.88719-0.88719v-98.119l-1.5718-1.6731h-145.67l-1.6731 1.5718v98.22l1.7744 1.7744h145.37z" stroke-width="3.6145"/></g></svg>
