<svg xmlns="http://www.w3.org/2000/svg" width="408.813" height="500.2" viewBox="0 0 408.813 500.2">
  <g id="pdf-icon" transform="translate(-51.6 -6)">
    <path id="XMLID_16_" d="M160.6,360.7H150v47.6h10.6A15.736,15.736,0,0,0,173,403c3.1-3.5,4.6-8.1,4.6-13.6v-10c0-5.5-1.5-10-4.6-13.5C170,362.5,165.9,360.7,160.6,360.7Z" fill="#42719c"/>
    <path id="XMLID_15_" d="M103.1,360.7h-14v22.9h14.1c4,0,7-1.1,9.1-3.2a11.51,11.51,0,0,0,3-8.2,11.928,11.928,0,0,0-3-8.3C110.2,361.8,107.1,360.7,103.1,360.7Z" fill="#42719c"/>
    <path id="Path_208" data-name="Path 208" d="M257.7,384.5l65.6-57.4H51.6V442H323.4ZM120,386.8c-4.1,3.7-9.7,5.5-16.9,5.5h-14V417H78.2V352h24.9c7.2,0,12.8,1.9,16.9,5.6s6.1,8.6,6.1,14.6C126.1,378.3,124,383.2,120,386.8Zm68.5,2.6c0,8.1-2.6,14.7-7.7,19.9-5.2,5.1-11.9,7.7-20.1,7.7H139.2V352h21.5c8.2,0,14.9,2.6,20.1,7.7s7.7,11.8,7.7,19.9Zm56.3-28.7H214v19.9h26.2v8.7H214V417H203.2V352h41.6v8.7Z" fill="#42719c"/>
    <path id="XMLID_10_" d="M455.8,117.2H427.9v-54H364.8v54H337c-4,0-6.1,4.2-3.4,6.8L393,192.9a4.956,4.956,0,0,0,6.8,0L459.2,124C461.9,121.3,459.8,117.2,455.8,117.2Z" fill="#42719c"/>
    <rect id="XMLID_9_" width="63.1" height="24.5" transform="translate(364.8 28.9)" fill="#42719c"/>
    <path id="XMLID_8_" d="M389.5,206V465.4a27.271,27.271,0,0,1-27.3,27.3H99.6a27.271,27.271,0,0,1-27.3-27.3V450.8H58.9v20a35.4,35.4,0,0,0,35.4,35.4H367.5a35.4,35.4,0,0,0,35.4-35.4V206.1a17.466,17.466,0,0,1-6.5,1.2A19.677,19.677,0,0,1,389.5,206Z" fill="#42719c"/>
    <path id="XMLID_7_" d="M72.3,81.1A27.271,27.271,0,0,1,99.6,53.8H351.7V40.5H94.3A35.4,35.4,0,0,0,58.9,75.9V318.4H72.3Z" fill="#42719c"/>
    <path id="XMLID_6_" d="M323.2,132H112.3v19.4H340l-16.1-18.6A2.7,2.7,0,0,1,323.2,132Z" fill="#42719c"/>
    <rect id="XMLID_5_" width="237.2" height="19.4" transform="translate(112.3 163.5)" fill="#42719c"/>
    <rect id="XMLID_4_" width="237.2" height="19.4" transform="translate(112.3 195)" fill="#42719c"/>
    <rect id="XMLID_3_" width="237.2" height="19.4" transform="translate(112.3 226.6)" fill="#42719c"/>
    <rect id="XMLID_2_" width="185.8" height="19.4" transform="translate(112.3 258.1)" fill="#42719c"/>
    <path id="XMLID_1_" d="M427.9,10.1A4.376,4.376,0,0,0,423.3,6h-54a4.374,4.374,0,0,0-4.6,4.1v9h63.1v-9Z" fill="#42719c"/>
  </g>
</svg>
