<?xml version="1.0" encoding="UTF-8"?>
<svg id="59725d3d-bdd8-4af0-9b66-49b8d09410bc" width="1041.3" height="554.17" data-name="Layer 1" version="1.1" viewBox="0 0 1041.3 554.17" xmlns="http://www.w3.org/2000/svg" xmlns:cc="http://creativecommons.org/ns#" xmlns:dc="http://purl.org/dc/elements/1.1/" xmlns:rdf="http://www.w3.org/1999/02/22-rdf-syntax-ns#">
 <metadata>
  <rdf:RDF>
   <cc:Work rdf:about="">
    <dc:format>image/svg+xml</dc:format>
    <dc:type rdf:resource="http://purl.org/dc/dcmitype/StillImage"/>
    <dc:title>programming</dc:title>
   </cc:Work>
  </rdf:RDF>
 </metadata>
 <defs>
  <linearGradient id="dff037aa-d578-4bab-81e7-399360663117" x1="597.75" x2="597.75" y1="725.44" y2="347.69" gradientUnits="userSpaceOnUse">
   <stop stop-color="gray" stop-opacity=".25" offset="0"/>
   <stop stop-color="gray" stop-opacity=".12" offset=".54"/>
   <stop stop-color="gray" stop-opacity=".1" offset="1"/>
  </linearGradient>
 </defs>
 <title>programming</title>
 <path transform="translate(-79.34 -172.91)" d="M1040.82,611.12q-1.74,3.75-3.47,7.4-2.7,5.67-5.33,11.12c-.78,1.61-1.56,3.19-2.32,4.77-8.6,17.57-16.63,33.11-23.45,45.89A73.21,73.21,0,0,1,942.44,719l-151.65,1.65h-1.6l-13,.14-11.12.12-34.1.37-1.38,0-17.36.19h-.53l-107,1.16-95.51,1-11.11.12-69,.75H429l-44.75.48h-.48l-141.5,1.53-42.33.46a88.07,88.07,0,0,1-26.67-3.82,86.39,86.39,0,0,1-39.09-24.75C116,678.37,102.75,655,93.85,629.64q-1.93-5.49-3.6-11.12C59.44,514.37,97,380,164.6,290.08q4.25-5.64,8.64-11l.07-.08c20.79-25.52,44.1-46.84,68.93-62,44-26.91,92.75-34.49,140.7-11.9,40.57,19.12,78.45,28.11,115.17,30.55,3.71.24,7.42.42,11.11.53,84.23,2.65,163.17-27.7,255.87-47.29,3.69-.78,7.39-1.55,11.12-2.28,66.13-13.16,139.49-20.1,226.73-5.51a189.09,189.09,0,0,1,26.76,6.4q5.77,1.86,11.12,4c41.64,16.94,64.35,48.24,74,87.46q1.37,5.46,2.37,11.11C1134.3,384.41,1084.19,518.23,1040.82,611.12Z" fill="#6c63ff" opacity=".1"/>
 <g fill="#6c63ff" opacity=".1">
  <path transform="translate(-79.34 -172.91)" d="M242.24,217V726.62l-42.33.46a88.07,88.07,0,0,1-26.67-3.82V279h.07C194.1,253.45,217.41,232.13,242.24,217Z"/>
  <path transform="translate(-79.34 -172.91)" d="m1117.2 290.08h-952.64q4.25-5.64 8.64-11v-0.08h941.63q1.37 5.43 2.37 11.08z"/>
  <path transform="translate(-79.34 -172.91)" d="m1040.8 191.51v427h-3.47q-2.7 5.67-5.33 11.12c-0.78 1.61-1.56 3.19-2.32 4.77v-446.93q5.77 1.86 11.12 4.04z"/>
  <path transform="translate(-79.34 -172.91)" d="m776.21 186.58v534.25l-11.12 0.12v-532.09c3.69-0.78 7.39-1.55 11.12-2.28z"/>
  <path transform="translate(-79.34 -172.91)" d="m509.22 236.15v487.58l-11.11 0.12v-488.23c3.71 0.24 7.42 0.38 11.11 0.53z"/>
  <path transform="translate(-79.34 -172.91)" d="M1037.35,618.52q-2.7,5.67-5.33,11.12H93.85q-1.93-5.49-3.6-11.12Z"/>
 </g>
 <rect x="211.6" y="265.83" width="19" height="57.66" fill="#3f3d56"/>
 <rect x="722.93" y="262.83" width="19" height="61" fill="#3f3d56"/>
 <polygon points="863.1 533.65 863.1 546.65 711.18 548.05 709.56 548.08 651.82 548.61 650.44 548.63 632.89 548.78 632.37 548.78 525.39 549.77 349.78 551.4 349.63 551.4 304.98 551.82 304.5 551.83 106.1 553.65 106.1 538.65 152.75 510.65 246.35 509.87 248.35 509.86 249.01 509.85 251.01 509.82 295.95 509.45 297.96 509.44 298.6 509.43 300.6 509.42 315.01 509.3 315.39 509.29 350.94 508.99 351.23 508.99 628.63 506.65 635.42 506.6 636.1 506.6 641.28 506.55 678.93 506.24 680.93 506.21 682.78 506.19 683.74 506.19 695.45 506.1 697.77 506.07 700.88 506.05 710.63 505.96 726.1 505.83 728.1 505.81 731.58 505.79 732.23 505.79 806.94 505.15" fill="#65617d"/>
 <polygon points="863.1 533.65 863.1 546.65 711.18 548.05 709.56 548.08 651.82 548.61 650.44 548.63 632.89 548.78 632.37 548.78 525.39 549.77 349.78 551.4 349.63 551.4 304.98 551.82 304.5 551.83 106.1 553.65 106.1 538.65 152.75 510.65 246.35 509.87 248.35 509.86 249.01 509.85 251.01 509.82 295.95 509.45 297.96 509.44 298.6 509.43 300.6 509.42 315.01 509.3 315.39 509.29 350.94 508.99 351.23 508.99 628.63 506.65 635.42 506.6 636.1 506.6 641.28 506.55 678.93 506.24 680.93 506.21 682.78 506.19 683.74 506.19 695.45 506.1 697.77 506.07 700.88 506.05 710.63 505.96 726.1 505.83 728.1 505.81 731.58 505.79 732.23 505.79 806.94 505.15" opacity=".2"/>
 <path transform="translate(-79.34 -172.91)" d="M375.44,656.57v24.49a6.13,6.13,0,0,1-3.5,5.54,6,6,0,0,1-2.5.6l-34.9.74a6,6,0,0,1-2.7-.57,6.12,6.12,0,0,1-3.57-5.57V656.57Z" fill="#3f3d56"/>
 <path transform="translate(-79.34 -172.91)" d="M375.44,656.57v24.49a6.13,6.13,0,0,1-3.5,5.54,6,6,0,0,1-2.5.6l-34.9.74a6,6,0,0,1-2.7-.57,6.12,6.12,0,0,1-3.57-5.57V656.57Z" opacity=".1"/>
 <path transform="translate(-79.34 -172.91)" d="M377.44,656.57v24.49a6.13,6.13,0,0,1-3.5,5.54,6,6,0,0,1-2.5.6l-34.9.74a6,6,0,0,1-2.7-.57,6.12,6.12,0,0,1-3.57-5.57V656.57Z" fill="#3f3d56"/>
 <rect x="680.93" y="483.66" width="47.17" height="31.5" fill="#3f3d56"/>
 <rect x="680.93" y="483.66" width="47.17" height="31.5" opacity=".1"/>
 <rect x="678.93" y="483.66" width="47.17" height="31.5" fill="#3f3d56"/>
 <polygon points="230.6 265.82 230.6 271.55 211.6 271.06 211.6 265.82" opacity=".1"/>
 <path transform="translate(-79.34 -172.91)" d="m435 277.31-22.83 164a4.3 4.3 0 0 1-4.37 3.71l-182.8-4.74-3.47-0.09a4.3 4.3 0 0 1-4.16-4.87l25.63-171.68a4.3 4.3 0 0 1 4.54-3.63l183.46 12.42a4.29 4.29 0 0 1 4 4.88z" fill="#65617d"/>
 <polygon points="175.93 99.16 156.6 250.49 324.6 255.82 345.26 109.82" fill="#86abcf"/>
 <rect x="384.6" y="96.82" width="204.67" height="173.33" rx="5.33" ry="5.33" fill="#65617d"/>
 <rect x="394.26" y="108.49" width="186" height="144.33" fill="#092596"/>
 <polygon points="741.93 262.82 741.93 266.61 722.93 267 722.93 262.82" opacity=".1"/>
 <path transform="translate(-79.34 -172.91)" d="M907,432.53a3.08,3.08,0,0,1-3,3.28L716.8,439.68a3.08,3.08,0,0,1-3.13-2.79L697.58,269.61a3.08,3.08,0,0,1,2.92-3.37L886.28,257l2-.1a3.07,3.07,0,0,1,3.22,2.8Z" fill="#65617d"/>
 <polygon points="628.93 103.16 798.6 94.82 812.93 246.82 644.6 250.82" fill="#86abcf"/>
 <path transform="translate(-79.34 -172.91)" d="M907,432.53a3.08,3.08,0,0,1-3,3.28L886.28,257l2-.1a3.07,3.07,0,0,1,3.22,2.8Z" opacity=".1"/>
 <path transform="translate(-79.34 -172.91)" d="M247.57,260,225,440.28l-3.47-.09a4.3,4.3,0,0,1-4.16-4.87L243,263.64A4.3,4.3,0,0,1,247.57,260Z" opacity=".1"/>
 <rect x="211.6" y="306.41" width="19" height="17.08" opacity=".1"/>
 <polygon points="298.1 483.65 298.1 488.62 250.93 489.88 250.93 483.65" opacity=".1"/>
 <path transform="translate(-79.34 -172.91)" d="m460.69 485.27v168.2a4 4 0 0 1-3.85 3.95l-191.65 5.1h-0.05a4 4 0 0 1-3.95-3.95v-173.3a4 4 0 0 1 3.95-3.95h191.6a4 4 0 0 1 3.95 3.95z" fill="#65617d"/>
 <path transform="translate(-79.34 -172.91)" d="M265.19,481.32v181.2h-.05a4,4,0,0,1-3.95-3.95V485.27a4,4,0,0,1,3.95-3.95Z" opacity=".1"/>
 <polygon points="194.6 319.15 372.1 319.15 372.1 467.4 194.6 471.4" fill="#d4dfec"/>
 <rect x="722.93" y="306.41" width="19" height="17.42" opacity=".1"/>
 <polygon points="726.1 483.65 726.1 490.06 678.93 488.8 678.93 483.65" opacity=".1"/>
 <path transform="translate(-79.34 -172.91)" d="m867.69 485.27v173.3a4 4 0 0 1-4 3.95l-191.69-5.1a4 4 0 0 1-3.85-3.95v-168.2a4 4 0 0 1 3.95-3.95h191.6a4 4 0 0 1 3.99 3.95z" fill="#65617d"/>
 <path transform="translate(-79.34 -172.91)" d="m867.69 485.27v173.3a4 4 0 0 1-4 3.95v-181.2a4 4 0 0 1 4 3.95z" opacity=".1"/>
 <polygon points="775.6 319.15 598.1 319.15 598.1 467.4 775.6 471.4" fill="#d4dfec"/>
 <path transform="translate(-79.34 -172.91)" d="m663.19 485.27v168.2a4 4 0 0 1-3.85 3.95l-191.65 5.1a4 4 0 0 1-4-3.95v-173.3a4 4 0 0 1 3.95-3.95h191.6a4 4 0 0 1 3.95 3.95z" fill="#65617d"/>
 <polygon points="397.1 319.15 574.6 319.15 574.6 467.4 397.1 471.4" fill="#d4dfec"/>
 <polygon points="863.1 533.65 863.1 546.65 711.18 548.05 709.56 548.08 651.82 548.61 650.44 548.63 632.89 548.78 632.37 548.78 525.39 549.77 349.78 551.4 349.63 551.4 304.98 551.82 304.5 551.83 106.1 553.65 106.1 538.65 308.61 537.32 309.09 537.32 350.08 537.04 350.27 537.04 633.35 535.17 633.64 535.17 633.81 535.16 634.28 535.16 639.07 535.13 640.53 535.13 715.02 534.63 719.42 534.61 720.4 534.6" opacity=".1"/>
 <circle cx="487.26" cy="272.16" r="51.33" fill="#fbbebe"/>
 <path transform="translate(-79.34 -172.91)" d="M383.74,725.09c0-.11.06-.23.1-.35,1-3.59,2.78-9.66,4.11-14.51.17-.6.33-1.19.48-1.75,1.47-5.47,4.33-18.28,5.92-26.27.56-2.81,1-5,1.09-6.1.2-1.69,3.21-8.92,6.62-17.23,2.39-5.84,5-12.22,6.91-17.6a61.38,61.38,0,0,0,2.93-9.85,5.1,5.1,0,0,0,0-2.13,14.69,14.69,0,0,1-.48-3.5v0c-.23-6.2,1.62-16,4.48-20.11,3.5-5,6-23.66,6-23.66s5.18.75,6-3.53a6.15,6.15,0,0,0,.1-1.4,7.41,7.41,0,0,0-.09-1.11c-.89-6.24,14.72-12.88,23.5-14.31a19.67,19.67,0,0,1,3-.28,27.24,27.24,0,0,0,6.25-1.44q1.4-.43,3-1c3.68-1.24,8.08-2.88,12.75-4.68,17.56-6.81,38.82-16,38.82-16,.15-.71.32-1.39.51-2.06a27.71,27.71,0,0,1,16.35-18.93h0c0-.66,0-1.33,0-2,0-3.45-.15-7-.3-10.54,0-.69-.06-1.38-.1-2.07,0-.2,0-.41,0-.61s0-.35,0-.52c0-.7-.07-1.4-.11-2.09l-.18-.14a16.41,16.41,0,0,1-3.9-4.2,15.27,15.27,0,0,1-1.42-3c-1.25-3.39-1.54-7.17-2.38-10.75l-.18-.74a84,84,0,0,0-4-10.58c-2.21-5.42-3.91-11-5.6-16.65q-1.54-5.13-3.11-10.28l-1.58-5.24c-.3-1-.6-2-.83-3v0a13.27,13.27,0,0,1-.26-1.4,0,0,0,0,1,0,0,10,10,0,0,1,.24-4.61,32.09,32.09,0,0,1,1.32-3,7.87,7.87,0,0,0,.5-1.38v0a3,3,0,0,0,.08-.32,5.65,5.65,0,0,0,.11-1.08,18.46,18.46,0,0,0-.52-3.89.07.07,0,0,1,0-.05,2.56,2.56,0,0,0-.05-.27,25.48,25.48,0,0,1-.36-3,28.45,28.45,0,0,1,3.47-15.57l.19-.36a25.22,25.22,0,0,1,1.84-2.78h0c.31-.42.63-.82,1-1.22-1.4,1.34-3.7.75-5-.69a3.61,3.61,0,0,1-.55-.75,3.81,3.81,0,0,1-.23-.45c-.05-.12-.09-.25-.13-.38-.7-2.45.52-5.06,2.12-7.05a18.49,18.49,0,0,1,5.74-4.7h0a3.84,3.84,0,0,1,.4-.21,17.12,17.12,0,0,1,2.64-1.06h0a15.06,15.06,0,0,1,1.63-.44l-3.71-.34-1.5-.14a14.49,14.49,0,0,1,13-10.91h1.08a11.73,11.73,0,0,1,1.57.13,4.44,4.44,0,0,1-2.65-4.33,14.41,14.41,0,0,0,9.19,3.06h.38a30,30,0,0,1-.34-3.27h0a0,0,0,0,1,0,0,0,0,0,0,1,0,0,33.19,33.19,0,0,1,0-4.46,8.44,8.44,0,0,0,6.78,2.26l-2.08-2.9a9.49,9.49,0,0,0,6.56,2.05l.48-.05a7,7,0,0,0,1.19-.23l.09,0c-.19-.24-.36-.49-.53-.75l-.06-.12a9.67,9.67,0,0,1-1-2.09,6.59,6.59,0,0,1-.24-.87h0a8.75,8.75,0,0,1,.45-5.45c3.23,2.7,6.77,6.39,11,3.6s4.37-7.91,11-7.39a10.2,10.2,0,0,1,8.41,6.12,6.75,6.75,0,0,1,7.67-1.75,6.85,6.85,0,0,1,3.88,6.89c2.75-.69,5.71-1.37,8.35-.33s4.34,4.41,2.84,6.66a1.43,1.43,0,0,1-.14.2c-1.23,1.59-3.95,2.46-3.66,4.46l.42.3,1.3.94a.05.05,0,0,1,0,0q7.65,5.52,14.9,11.6c2.48,2.08,5.12,4.58,5.29,7.83a8.64,8.64,0,0,1-.24,2.37h0c-.16.78-.38,1.56-.55,2.34a19.51,19.51,0,0,0-.34,6.05h0c.07.59.16,1.17.27,1.76,1.53,7.73,7.71,14.11,8.32,22l0,.56a17.78,17.78,0,0,1-.07,2.53c-.46,4.8-2.68,9.41-4.48,14-.11.28-.22.56-.32.84-3.47,9-5.47,18.59-7,28.16a100.26,100.26,0,0,1-2,10.09A26.73,26.73,0,0,1,611,492.07a16.22,16.22,0,0,1-3.36,3,18.67,18.67,0,0,1-2.65,1.41s0,0,0,.06c.11.61.2,1.22.31,1.83.06.32.11.64.17,1h0a.14.14,0,0,0,0,.06c.84,4.73,1.8,9.36,2.81,13.76l.51,2.19c12.6,4.55,14.09,13.87,14.18,17.44a9.64,9.64,0,0,1,0,1.43s19,.5,26.5,6a20.34,20.34,0,0,0,4.51,2.3,83,83,0,0,0,9.25,2.89c1.61.42,3.29.83,5,1.23,3,.69,6.18,1.36,9.25,2,8.19,1.65,15.9,3,19.81,4,9.33,2.36,30.67,22.82,30.67,22.82s2.5,20.64,5,23.65,7,13.59,7,13.59l16.54,29.41,7,12.37h4.5c.62,0,1.84.88,3.21,2.1,1.19,1.06,2.51,2.38,3.67,3.58l1.92,2.05,1.2,1.33s7.27.18,9.24,5.93c5.92-.17,13.19.22,18.28,2.5a14.14,14.14,0,0,1,2,1.08,8.68,8.68,0,0,1,4.13,5.66,8.34,8.34,0,0,1,.18,1.44c0,.57,0,1.14,0,1.7-.36,7.57-5.29,13.87-9.82,18.11l.32.57s-.15.36-.44,1c-.08.19-.18.4-.29.64h0c-.59,1.26-1.53,3.15-2.76,5.36a63.31,63.31,0,0,1-9.57,13.17l-.29.3-57.74.53-.17-.2L719.87,708l-5.57-6.64-.17-.21-.16,1.59-.54,5.3-1.3,12.81-.07.64,0,.17-.15,1.48.11-1.48h-.29l-107,1L429.11,724.6l0,.84h-.14l0-.84-44.75.48Z" fill="url(#dff037aa-d578-4bab-81e7-399360663117)"/>
 <path transform="translate(-79.34 -172.91)" d="M617.94,550.07s-99.5,12-90,0c3.44-4.34,4.39-17.2,4.2-31.85-.06-4.45-.22-9.06-.45-13.65-1.1-22-3.75-43.5-3.75-43.5s87-41,77-8.5c-4,13.13-2.69,31.57.35,48.88.89,5.05,1.92,10,3,14.7A344.67,344.67,0,0,0,617.94,550.07Z" fill="#fbbebe"/>
 <path transform="translate(-79.34 -172.91)" d="m617.94 550.07s-99.5 12-90 0c3.44-4.34 4.39-17.2 4.2-31.85 15.17-6.48 34.47-1.65 34.47-1.65 20.32-4.05 33.35-3.26 41.68-0.42a344.67 344.67 0 0 0 9.65 33.92z" opacity=".1"/>
 <path transform="translate(-79.34 -172.91)" d="M429.08,725.44l0-.84,175.62-1.91,107-1H712l-.11,1.48.15-1.48h.19l0-.17,1.37-13.45.52-5.09.16-1.59.14-1.33,6.18-20.61,6.18-20.58,5.2-17.33,7.94-26.48s-4.5-10.5-7-13.5-5-23.5-5-23.5-21.34-20.33-30.67-22.67c-3.91-1-11.63-2.33-19.83-4-3.07-.62-6.22-1.28-9.25-2-1.71-.39-3.39-.8-5-1.21a87.91,87.91,0,0,1-9.25-2.86,20.7,20.7,0,0,1-4.5-2.29c-7.35-5.39-25.77-6-26.48-6h0a.42.42,0,0,1,0-.07v-.09a10.26,10.26,0,0,0,0-1.26c0-.4,0-.87-.09-1.4,0-.16,0-.33-.07-.5-.05-.36-.11-.74-.2-1.14a5,5,0,0,0-.12-.53,17.21,17.21,0,0,0-1.25-3.49c-.07-.16-.16-.33-.24-.49a18.25,18.25,0,0,0-1.7-2.63c-.13-.17-.27-.35-.42-.52a19.58,19.58,0,0,0-2.72-2.64c-.27-.21-.55-.43-.84-.63a4.67,4.67,0,0,0-.51-.36l-.89-.58-.83-.48c-.73-.4-1.5-.79-2.34-1.16-.26-.12-.54-.23-.82-.34s-.72-.28-1.09-.42l-.06,0L608,518c-.57-.19-1.15-.36-1.76-.53l-.93-.24-1-.23-1-.21c-1-.2-2.07-.38-3.19-.52l-1.14-.14-1.17-.12-1.21-.1-1.72-.1-2-.07a124.68,124.68,0,0,0-26.24,2.79,72.27,72.27,0,0,0-18.26-1.68l-.87,0-1,.06-.64,0-1.29.12c-.43,0-.87.09-1.3.15s-.88.11-1.31.18l-.66.11c-.65.11-1.31.23-2,.37q-.33.06-.66.15c-.87.19-1.74.42-2.6.68-.43.12-.86.26-1.29.41-.22.06-.43.14-.64.22l-.64.23-.63.25-.75.3c-.38.16-.75.33-1.12.51-.21.09-.42.19-.62.3s-.41.2-.6.31a27.75,27.75,0,0,0-6.21,4.38l-.51.49-.5.51c-.17.17-.33.35-.49.53a23.82,23.82,0,0,0-1.82,2.25c-.16.21-.31.42-.46.64a26.69,26.69,0,0,0-1.72,2.92c-.13.24-.25.49-.37.73a32.7,32.7,0,0,0-2,5.25q-.28,1-.51,2S494,550.24,476.44,557c-4.67,1.8-9.07,3.43-12.75,4.66-1.07.36-2.07.69-3,1a26.7,26.7,0,0,1-6.25,1.44,19.67,19.67,0,0,0-3,.28c-8.07,1.31-21.9,7-23.41,12.71a3.69,3.69,0,0,0-.1,1.4s0,.07,0,.11c1,7-6,6-6,6s-2.5,18.5-6,23.5c-2.53,3.6-4.26,11.63-4.48,17.69v0a19.61,19.61,0,0,0,.44,5.63c0,.05,0,.1,0,.14.4,1.34-.56,5-2.19,9.69-1.77,5.15-4.35,11.55-6.83,17.59-3.74,9.12-7.26,17.4-7.48,19.22-.09.81-.35,2.26-.71,4.13-1.46,7.62-4.7,22.13-6.3,28-1.19,4.38-2.92,10.38-4.11,14.5,0,.12-.07.24-.1.35L429,724.6l0,.84h.14Z" fill="#6cecff"/>
 <path transform="translate(-79.34 -172.91)" d="m445.44 607.57s57 29.5 77.5 26z" opacity=".1"/>
 <path transform="translate(-79.34 -172.91)" d="m561.44 595.57s55.5 18 74 20.5-74-20.5-74-20.5z" opacity=".1"/>
 <path transform="translate(-79.34 -172.91)" d="m623 537.65c-29 5.34-83.6 4.19-107.2 3.38 8.65-31 50.83-20.46 50.83-20.46 52.21-10.42 56.21 11.2 56.37 17.08z" opacity=".1"/>
 <path transform="translate(-79.34 -172.91)" d="m623 535.65c-29 5.34-83.6 4.19-107.2 3.38 8.65-31 50.83-20.46 50.83-20.46 52.21-10.42 56.21 11.2 56.37 17.08z" fill="#6cecff"/>
 <path transform="translate(-79.34 -172.91)" d="m776.94 672.32s34.16-5.25 34.83 9.75-17.42 25.48-17.42 25.48z" fill="#fbbebe"/>
 <path transform="translate(-79.34 -172.91)" d="m605.29 501.45a47 47 0 0 1-4.5 1.74c-10.78 3.72-21.65 7.47-33 8.83s-23.26 0.16-33.16-5.5a28.77 28.77 0 0 1-3-1.95c-1.1-22-3.75-43.5-3.75-43.5s87-41 77-8.5c-3.98 13.13-2.63 31.57 0.41 48.88z" opacity=".1"/>
 <path transform="translate(-79.34 -172.91)" d="M802.27,702.32s-.89,2.12-2.53,5.19a69,69,0,0,1-9,13.17l-.27.29-1.62,0-57.74.53-1.38,0-.17-.2-11.2-13.29L714.14,703l-.17-.21-.36-.42-.2-.24-.26-.31-8.21-9.74,3-12.5,5.11-21.06.13-.51,1-4,.71-3,2.38-9.78,8.16-33.65,14.5,7.5,15.29,27,8.21,14.5h4.5c.85,0,2.8,1.64,4.76,3.53.7.67,1.4,1.38,2,2,1.78,1.84,3.19,3.42,3.19,3.42s7.29.16,9.25,5.9a7,7,0,0,1,.25.85,40.3,40.3,0,0,0,2.53,6.56c1.29,2.81,2.91,6,4.55,9.19,3.05,5.85,6.15,11.42,7.29,13.44l.14.25Z" fill="#6cecff"/>
 <path transform="translate(-79.34 -172.91)" d="M716.37,657.17l-.1,1.43v.1l-.17,2.3-1.33,18.51-1.61,22.3-.46,6.28-1,13.44v.17l-107,1L429.11,724.6l0,.84h-.14l0-.84v-.28l.45-14.36.86-28.06.74-23.79.07-2.37a10.53,10.53,0,0,1,11.42-10.17c4.72.4,10.85.89,18.18,1.41l3,.22c42.33,2.94,120.56,6.74,199.5,2,1.66-.09,3.33-.19,5-.31,12.24-.77,24.47-1.76,36.58-3a10.53,10.53,0,0,1,11.6,11.23Z" opacity=".1"/>
 <path transform="translate(-79.34 -172.91)" d="M429.08,725.44l0-.84,175.62-1.91,107-1H712v-.17l1-13.44.43-6,1.64-22.61,1.29-17.9,0-.44a10.62,10.62,0,0,0-.11-2.47.3.3,0,0,0,0-.1,10.39,10.39,0,0,0-2-4.64,10.54,10.54,0,0,0-9.42-4c-12.11,1.24-24.34,2.23-36.58,3-1.67.12-3.34.22-5,.31-78.94,4.69-157.17.89-199.5-2l-3-.22c-7.33-.52-13.46-1-18.18-1.41a10.54,10.54,0,0,0-11.24,8.53,11,11,0,0,0-.18,1.64l-.68,22.16L429.54,710l-.44,14.36v.28l0,.84Z" fill="#3f3d56"/>
 <path transform="translate(-79.34 -172.91)" d="M716.67,664.18l-1.23,15.33-1.83,22.85-.46,5.72-1,12.81-.06.64v.17h0l-.15,1.48.11-1.48h-.29l-107,1L429.11,724.6v-.28l.49-14.36,1-28.06.64-18.65A6.36,6.36,0,0,1,434.3,658a6.25,6.25,0,0,1,3.78-.9c2.1.17,4.68.37,7.69.59,4.89.36,10.92.78,17.94,1.22,13,.82,29.31,1.7,48,2.42,52,2,122.2,2.67,188.88-3.17,3-.26,6.1-.55,9.13-.84a6.26,6.26,0,0,1,3.48.66,5.16,5.16,0,0,1,.86.54,6.14,6.14,0,0,1,2,2.46,3.56,3.56,0,0,1,.25.61A6.28,6.28,0,0,1,716.67,664.18Z" opacity=".1"/>
 <path transform="translate(-79.34 -172.91)" d="M377.44,677.87v3.19a6.13,6.13,0,0,1-3.5,5.54l-40.1.77a6.12,6.12,0,0,1-3.57-5.57v-3Z" opacity=".1"/>
 <polygon points="298.6 515.57 246.35 516.57 246.35 507.9 298.6 506.9" fill="#3f3d56"/>
 <polygon points="298.6 515.57 246.35 516.57 246.35 507.9 298.6 506.9" opacity=".1"/>
 <polygon points="300.6 515.57 248.35 516.57 248.35 507.9 300.6 506.9" fill="#3f3d56"/>
 <g opacity=".1">
  <path transform="translate(-79.34 -172.91)" d="m552.93 361.56a9.75 9.75 0 0 1-1.89-4.34 9.49 9.49 0 0 0 0.42 4.6 9 9 0 0 0 1.47-0.26z"/>
  <path transform="translate(-79.34 -172.91)" d="m540.23 368.2a35.12 35.12 0 0 1-0.37-3.7v3.71z"/>
  <path transform="translate(-79.34 -172.91)" d="M621.73,401.57a18.34,18.34,0,0,1,.36-2.65,18,18,0,0,0,.8-4.69,6.16,6.16,0,0,0-.16-1.06c-.17.92-.44,1.84-.64,2.75A19.14,19.14,0,0,0,621.73,401.57Z"/>
  <path transform="translate(-79.34 -172.91)" d="m600.93 370.67 1.09 0.79a19.71 19.71 0 0 0 2.57-2.22 3.67 3.67 0 0 0 0.38-3.64 3 3 0 0 1-0.38 0.64c-1.23 1.58-3.95 2.45-3.66 4.43z"/>
  <path transform="translate(-79.34 -172.91)" d="M518.76,380.29a12.32,12.32,0,0,0-.87,2.28,18.16,18.16,0,0,1,5-1.89Z"/>
  <path transform="translate(-79.34 -172.91)" d="m532.55 369.41a14.83 14.83 0 0 1-1.88-1.23 4.25 4.25 0 0 0 0.09 1.18 11.86 11.86 0 0 1 1.79 0.05z"/>
  <path transform="translate(-79.34 -172.91)" d="m630.32 428.33c-0.41 4.85-2.67 9.52-4.5 14.12-3.67 9.22-5.74 19-7.29 28.81-1.39 8.79-3 18.77-10.5 23.64a30 30 0 0 1-6.83 3c-10.78 3.73-21.65 7.47-33 8.83s-23.26 0.17-33.16-5.49a20 20 0 0 1-7.18-6.33c-2.67-4.23-2.72-9.53-4-14.37a82.21 82.21 0 0 0-4-10.52c-2.21-5.38-3.91-11-5.6-16.53q-2.35-7.71-4.69-15.43a28.81 28.81 0 0 1-1.14-4.75c-0.39 2.56 0.37 5.24 1.14 7.75q2.34 7.73 4.69 15.43c1.69 5.57 3.39 11.15 5.6 16.53a82.21 82.21 0 0 1 4 10.52c1.26 4.84 1.31 10.14 4 14.37a20 20 0 0 0 7.18 6.33c9.9 5.66 21.84 6.85 33.16 5.49s22.18-5.1 33-8.83a30 30 0 0 0 6.83-3c7.45-4.87 9.11-14.85 10.5-23.64 1.55-9.81 3.62-19.59 7.29-28.81 2.18-5.48 5-11.05 4.52-16.94 0-0.06-0.02-0.12-0.02-0.18z"/>
  <path transform="translate(-79.34 -172.91)" d="m510.63 424.46s0-0.07 0-0.11a14 14 0 0 0-0.46-5.25 26.59 26.59 0 0 1-0.39-3.32 27.35 27.35 0 0 0 0.39 6.32c0.16 0.78 0.34 1.57 0.46 2.36z"/>
  <path transform="translate(-79.34 -172.91)" d="M513.68,400a27.74,27.74,0,0,1,2.61-3.67c-1.83,1.75-5.21.19-5.92-2.24a5.83,5.83,0,0,0,0,3A4.39,4.39,0,0,0,513.68,400Z"/>
 </g>
 <path transform="translate(-79.34 -172.91)" d="m763.44 656.57s3.17 11.5 0 21.5 0-21.5 0-21.5z" opacity=".1"/>
 <path transform="translate(-79.34 -172.91)" d="m776.94 668.3s1.33 14.6-1.67 17.19 1.67-17.19 1.67-17.19z" opacity=".1"/>
 <g fill="none" stroke="#6c63ff" stroke-miterlimit="10" stroke-width="2">
  <line x1="198.99" x2="300.6" y1="342.86" y2="341.86"/>
  <line x1="198.99" x2="300.6" y1="355.33" y2="354.34"/>
  <line x1="198.99" x2="300.6" y1="367.81" y2="366.81"/>
 </g>
 <rect x="394.26" y="108.49" width="186" height="144.33" fill="#636294" stroke-width=".34197"/>
 <g fill="#6c63ff" stroke-width=".34197">
  <rect x="403.82" y="163.76" width="6.138" height="2.587" opacity=".3"/>
  <rect x="567.6" y="163.84" width="6.138" height="2.587" opacity=".3"/>
  <rect x="403.87" y="181.95" width="6.138" height="2.587" opacity=".3"/>
  <rect x="403.93" y="200.14" width="6.138" height="2.587" opacity=".3"/>
  <rect x="403.99" y="218.32" width="6.138" height="2.587" opacity=".3"/>
 </g>
 <g transform="matrix(.29021 0 0 .40297 322.44 33.562)" fill="#f2f2f2" opacity=".2">
  <rect x="301.58" y="326.2" width="6" height=".25"/>
  <path transform="translate(-31.03,-79.42)" d="m857.64 405.87h-11.79v-0.25h11.79zm-23.59 0h-11.79v-0.25h11.79zm-23.59 0h-11.8v-0.25h11.8zm-23.59 0h-11.8v-0.25h11.8zm-23.59 0h-11.8v-0.25h11.8zm-23.6 0h-11.79v-0.25h11.79zm-23.59 0h-11.8v-0.25h11.8zm-23.59 0h-11.8v-0.25h11.8zm-23.59 0h-11.8v-0.25h11.8zm-23.6 0h-11.79v-0.25h11.79zm-23.59 0h-11.8v-0.25h11.8zm-23.59 0h-11.8v-0.25h11.8zm-23.59 0h-11.8v-0.25h11.8zm-23.6 0h-11.79v-0.25h11.79zm-23.59 0h-11.79v-0.25h11.79zm-23.59 0h-11.76v-0.25h11.8zm-23.59 0h-11.8v-0.25h11.8zm-23.6 0h-11.79v-0.25h11.79zm-23.59 0h-11.79v-0.25h11.81zm-23.59 0h-11.8v-0.25h11.8zm-23.59 0h-11.8v-0.25h11.8zm-23.6 0h-11.79v-0.25h11.79z"/>
  <rect x="838.41" y="326.2" width="6" height=".25"/>
  <rect x="301.58" y="326.2" width="6" height=".25"/>
  <path transform="translate(-31.03,-79.42)" d="m857.64 405.87h-11.79v-0.25h11.79zm-23.59 0h-11.79v-0.25h11.79zm-23.59 0h-11.8v-0.25h11.8zm-23.59 0h-11.8v-0.25h11.8zm-23.59 0h-11.8v-0.25h11.8zm-23.6 0h-11.79v-0.25h11.79zm-23.59 0h-11.8v-0.25h11.8zm-23.59 0h-11.8v-0.25h11.8zm-23.59 0h-11.8v-0.25h11.8zm-23.6 0h-11.79v-0.25h11.79zm-23.59 0h-11.8v-0.25h11.8zm-23.59 0h-11.8v-0.25h11.8zm-23.59 0h-11.8v-0.25h11.8zm-23.6 0h-11.79v-0.25h11.79zm-23.59 0h-11.79v-0.25h11.79zm-23.59 0h-11.76v-0.25h11.8zm-23.59 0h-11.8v-0.25h11.8zm-23.6 0h-11.79v-0.25h11.79zm-23.59 0h-11.79v-0.25h11.81zm-23.59 0h-11.8v-0.25h11.8zm-23.59 0h-11.8v-0.25h11.8zm-23.6 0h-11.79v-0.25h11.79z"/>
  <rect x="838.41" y="326.2" width="6" height=".25"/>
 </g>
 <rect x="403.82" y="145.63" width="6.138" height="2.587" fill="#6c63ff" opacity=".3" stroke-width=".34197"/>
 <rect x="567.6" y="145.71" width="6.138" height="2.587" fill="#6c63ff" opacity=".3" stroke-width=".34197"/>
 <g transform="matrix(.29021 0 0 .40297 322.44 33.562)" fill="#f2f2f2" opacity=".2">
  <rect x="301.58" y="281.2" width="6" height=".25"/>
  <path transform="translate(-31.03,-79.42)" d="m857.64 360.87h-11.79v-0.25h11.79zm-23.59 0h-11.79v-0.25h11.79zm-23.59 0h-11.8v-0.25h11.8zm-23.59 0h-11.8v-0.25h11.8zm-23.59 0h-11.8v-0.25h11.8zm-23.6 0h-11.79v-0.25h11.79zm-23.59 0h-11.8v-0.25h11.8zm-23.59 0h-11.8v-0.25h11.8zm-23.59 0h-11.8v-0.25h11.8zm-23.6 0h-11.79v-0.25h11.79zm-23.59 0h-11.8v-0.25h11.8zm-23.59 0h-11.8v-0.25h11.8zm-23.59 0h-11.8v-0.25h11.8zm-23.6 0h-11.79v-0.25h11.79zm-23.59 0h-11.79v-0.25h11.79zm-23.59 0h-11.76v-0.25h11.8zm-23.59 0h-11.8v-0.25h11.8zm-23.6 0h-11.79v-0.25h11.79zm-23.59 0h-11.79v-0.25h11.81zm-23.59 0h-11.8v-0.25h11.8zm-23.59 0h-11.8v-0.25h11.8zm-23.6 0h-11.79v-0.25h11.79z"/>
  <rect x="838.41" y="281.2" width="6" height=".25"/>
 </g>
 <rect x="567.6" y="181.95" width="6.138" height="2.587" fill="#6c63ff" opacity=".3" stroke-width=".34197"/>
 <g transform="matrix(.29021 0 0 .40297 322.44 33.562)" fill="#f2f2f2" opacity=".2">
  <rect x="301.58" y="371.14" width="6" height=".25"/>
  <path transform="translate(-31.03,-79.42)" d="m857.64 450.8h-11.79v-0.25h11.79zm-23.59 0h-11.79v-0.25h11.79zm-23.59 0h-11.8v-0.25h11.8zm-23.59 0h-11.8v-0.25h11.8zm-23.59 0h-11.8v-0.25h11.8zm-23.6 0h-11.79v-0.25h11.79zm-23.59 0h-11.8v-0.25h11.8zm-23.59 0h-11.8v-0.25h11.8zm-23.59 0h-11.8v-0.25h11.8zm-23.6 0h-11.79v-0.25h11.79zm-23.59 0h-11.8v-0.25h11.8zm-23.59 0h-11.8v-0.25h11.8zm-23.59 0h-11.8v-0.25h11.8zm-23.6 0h-11.79v-0.25h11.79zm-23.59 0h-11.79v-0.25h11.79zm-23.59 0h-11.76v-0.25h11.8zm-23.59 0h-11.8v-0.25h11.8zm-23.6 0h-11.79v-0.25h11.79zm-23.59 0h-11.79v-0.25h11.81zm-23.59 0h-11.8v-0.25h11.8zm-23.59 0h-11.8v-0.25h11.8zm-23.6 0h-11.79v-0.25h11.79z"/>
  <rect x="838.41" y="371.14" width="6" height=".25"/>
  <rect x="301.58" y="371.14" width="6" height=".25"/>
  <path transform="translate(-31.03,-79.42)" d="m857.64 450.8h-11.79v-0.25h11.79zm-23.59 0h-11.79v-0.25h11.79zm-23.59 0h-11.8v-0.25h11.8zm-23.59 0h-11.8v-0.25h11.8zm-23.59 0h-11.8v-0.25h11.8zm-23.6 0h-11.79v-0.25h11.79zm-23.59 0h-11.8v-0.25h11.8zm-23.59 0h-11.8v-0.25h11.8zm-23.59 0h-11.8v-0.25h11.8zm-23.6 0h-11.79v-0.25h11.79zm-23.59 0h-11.8v-0.25h11.8zm-23.59 0h-11.8v-0.25h11.8zm-23.59 0h-11.8v-0.25h11.8zm-23.6 0h-11.79v-0.25h11.79zm-23.59 0h-11.79v-0.25h11.79zm-23.59 0h-11.76v-0.25h11.8zm-23.59 0h-11.8v-0.25h11.8zm-23.6 0h-11.79v-0.25h11.79zm-23.59 0h-11.79v-0.25h11.81zm-23.59 0h-11.8v-0.25h11.8zm-23.59 0h-11.8v-0.25h11.8zm-23.6 0h-11.79v-0.25h11.79z"/>
  <rect x="838.41" y="371.14" width="6" height=".25"/>
 </g>
 <rect x="567.6" y="200.06" width="6.138" height="2.587" fill="#6c63ff" opacity=".3" stroke-width=".34197"/>
 <g transform="matrix(.29021 0 0 .40297 322.44 33.562)" fill="#f2f2f2" opacity=".2">
  <rect x="301.58" y="416.07" width="6" height=".25"/>
  <path transform="translate(-31.03,-79.42)" d="m857.64 495.74h-11.79v-0.25h11.79zm-23.59 0h-11.79v-0.25h11.79zm-23.59 0h-11.8v-0.25h11.8zm-23.59 0h-11.8v-0.25h11.8zm-23.59 0h-11.8v-0.25h11.8zm-23.6 0h-11.79v-0.25h11.79zm-23.59 0h-11.8v-0.25h11.8zm-23.59 0h-11.8v-0.25h11.8zm-23.59 0h-11.8v-0.25h11.8zm-23.6 0h-11.79v-0.25h11.79zm-23.59 0h-11.8v-0.25h11.8zm-23.59 0h-11.8v-0.25h11.8zm-23.59 0h-11.8v-0.25h11.8zm-23.6 0h-11.79v-0.25h11.79zm-23.59 0h-11.79v-0.25h11.79zm-23.59 0h-11.76v-0.25h11.8zm-23.59 0h-11.8v-0.25h11.8zm-23.6 0h-11.79v-0.25h11.79zm-23.59 0h-11.79v-0.25h11.81zm-23.59 0h-11.8v-0.25h11.8zm-23.59 0h-11.8v-0.25h11.8zm-23.6 0h-11.79v-0.25h11.79z"/>
  <rect x="838.41" y="416.07" width="6" height=".25"/>
  <rect x="301.58" y="416.07" width="6" height=".25"/>
  <path transform="translate(-31.03,-79.42)" d="m857.64 495.74h-11.79v-0.25h11.79zm-23.59 0h-11.79v-0.25h11.79zm-23.59 0h-11.8v-0.25h11.8zm-23.59 0h-11.8v-0.25h11.8zm-23.59 0h-11.8v-0.25h11.8zm-23.6 0h-11.79v-0.25h11.79zm-23.59 0h-11.8v-0.25h11.8zm-23.59 0h-11.8v-0.25h11.8zm-23.59 0h-11.8v-0.25h11.8zm-23.6 0h-11.79v-0.25h11.79zm-23.59 0h-11.8v-0.25h11.8zm-23.59 0h-11.8v-0.25h11.8zm-23.59 0h-11.8v-0.25h11.8zm-23.6 0h-11.79v-0.25h11.79zm-23.59 0h-11.79v-0.25h11.79zm-23.59 0h-11.76v-0.25h11.8zm-23.59 0h-11.8v-0.25h11.8zm-23.6 0h-11.79v-0.25h11.79zm-23.59 0h-11.79v-0.25h11.81zm-23.59 0h-11.8v-0.25h11.8zm-23.59 0h-11.8v-0.25h11.8zm-23.6 0h-11.79v-0.25h11.79z"/>
  <rect x="838.41" y="416.07" width="6" height=".25"/>
 </g>
 <rect x="567.6" y="218.16" width="6.138" height="2.587" fill="#6c63ff" opacity=".3" stroke-width=".34197"/>
 <g transform="matrix(.29021 0 0 .40297 322.44 33.562)" fill="#f2f2f2" opacity=".2">
  <rect x="301.58" y="461.01" width="6" height=".25"/>
  <path transform="translate(-31.03,-79.42)" d="m857.64 540.68h-11.79v-0.25h11.79zm-23.59 0h-11.79v-0.25h11.79zm-23.59 0h-11.8v-0.25h11.8zm-23.59 0h-11.8v-0.25h11.8zm-23.59 0h-11.8v-0.25h11.8zm-23.6 0h-11.79v-0.25h11.79zm-23.59 0h-11.8v-0.25h11.8zm-23.59 0h-11.8v-0.25h11.8zm-23.59 0h-11.8v-0.25h11.8zm-23.6 0h-11.79v-0.25h11.79zm-23.59 0h-11.8v-0.25h11.8zm-23.59 0h-11.8v-0.25h11.8zm-23.59 0h-11.8v-0.25h11.8zm-23.6 0h-11.79v-0.25h11.79zm-23.59 0h-11.79v-0.25h11.79zm-23.59 0h-11.76v-0.25h11.8zm-23.59 0h-11.8v-0.25h11.8zm-23.6 0h-11.79v-0.25h11.79zm-23.59 0h-11.79v-0.25h11.81zm-23.59 0h-11.8v-0.25h11.8zm-23.59 0h-11.8v-0.25h11.8zm-23.6 0h-11.79v-0.25h11.79z"/>
  <rect x="838.41" y="461.01" width="6" height=".25"/>
  <rect x="301.58" y="461.01" width="6" height=".25"/>
  <path transform="translate(-31.03,-79.42)" d="m857.64 540.68h-11.79v-0.25h11.79zm-23.59 0h-11.79v-0.25h11.79zm-23.59 0h-11.8v-0.25h11.8zm-23.59 0h-11.8v-0.25h11.8zm-23.59 0h-11.8v-0.25h11.8zm-23.6 0h-11.79v-0.25h11.79zm-23.59 0h-11.8v-0.25h11.8zm-23.59 0h-11.8v-0.25h11.8zm-23.59 0h-11.8v-0.25h11.8zm-23.6 0h-11.79v-0.25h11.79zm-23.59 0h-11.8v-0.25h11.8zm-23.59 0h-11.8v-0.25h11.8zm-23.59 0h-11.8v-0.25h11.8zm-23.6 0h-11.79v-0.25h11.79zm-23.59 0h-11.79v-0.25h11.79zm-23.59 0h-11.76v-0.25h11.8zm-23.59 0h-11.8v-0.25h11.8zm-23.6 0h-11.79v-0.25h11.79zm-23.59 0h-11.79v-0.25h11.81zm-23.59 0h-11.8v-0.25h11.8zm-23.59 0h-11.8v-0.25h11.8zm-23.6 0h-11.79v-0.25h11.79z"/>
  <rect x="838.41" y="461.01" width="6" height=".25"/>
 </g>
 <g fill="none" stroke="#f2f2f2" stroke-miterlimit="10" stroke-width=".034197">
  <line x1="429.97" x2="429.97" y1="147" y2="219.61"/>
  <line x1="451.15" x2="451.15" y1="147" y2="219.61"/>
  <line x1="472.34" x2="472.34" y1="147" y2="219.61"/>
  <line x1="493.52" x2="493.52" y1="147" y2="219.61"/>
  <line x1="514.71" x2="514.71" y1="147" y2="219.61"/>
  <line x1="535.9" x2="535.9" y1="147" y2="219.61"/>
  <line x1="557.08" x2="557.08" y1="147" y2="219.61"/>
 </g>
 <g fill="#6c63ff" stroke-width=".34197">
  <path d="m561.66 142.1-2.4233 3.5058a0.74004 1.0276 0 0 0-0.12188 0.24581l-1.5033 4.2996a0.6849 0.951 0 0 1-0.6704 0.53594l-0.48174-0.0524a0.6849 0.951 0 0 1-0.60945-0.68504l-0.46434-2.2324a0.6878 0.95503 0 0 0-1.3118-0.0443l-0.78067 3.1754a0.6878 0.95503 0 0 1-0.65297 0.64877h-2.9805a0.6907 0.95906 0 0 1-0.67909-0.80593l-0.84162-7.3138a0.6878 0.95503 0 0 0-1.2943-0.28207l-4.3155 11.827a0.6878 0.95503 0 0 1-1.0099 0.35058l-2.5655-2.5145a0.69361 0.96309 0 0 0-0.91997 0.15313l-0.97222 1.5595a0.65588 0.9107 0 0 0-0.0755 0.14909l-2.5945 6.2339a0.682 0.94697 0 0 1-0.6646 0.47147l-1.5816-0.2176a0.69361 0.96309 0 0 0-0.32505 0.0645l-1.4162 0.78578a0.6878 0.95503 0 0 1-0.87064-0.50371l-0.31052-0.98727a0.6907 0.95906 0 0 0-0.66169-0.57221l-1.6194 0.10477a0.6791 0.94294 0 0 0-0.51368 0.37476l-0.45853 0.83011a0.6878 0.95503 0 0 1-1.1957-0.26596l-0.58042-2.2768a0.6878 0.95503 0 0 0-1.0622-0.44729l-2.757 2.8691-3.0472 3.4131a0.6907 0.95906 0 0 1-0.74875 0.10478l-2.3652-1.7046a0.69361 0.96309 0 0 0-0.4121-0.0967l-4.7914 0.93085a0.6907 0.95906 0 0 0-0.58043 0.7334l-0.85031 5.1298a0.6878 0.95503 0 0 1-1.1173 0.51177 0.6907 0.95906 0 0 0-1.0651 0.29819l-0.65297 1.8174a0.69651 0.96712 0 0 1-0.50208 0.51579l-1.483 0.34252a0.6907 0.95906 0 0 0-0.267 0.14911l-2.3362 2.1599a0.682 0.94697 0 0 1-0.38018 0.16119h-1.0941a0.6878 0.95503 0 0 1-0.63266-0.57624l-0.29022-0.96309a0.6878 0.95503 0 0 0-0.92287-0.47953l-2.5365 1.6481a0.6907 0.95906 0 0 1-0.64716-0.0443l-1.1608-0.97114a0.69361 0.96309 0 0 0-0.35407-0.13701h-2.5626a0.6878 0.95503 0 0 0-0.38017 0.16118l-2.5568 2.3574a0.6878 0.95503 0 0 1-0.67328 0.0685l-1.1608-0.76161a0.6878 0.95503 0 0 0-0.8097 0.23775l-0.5514 0.87444a0.6849 0.951 0 0 1-1.1173-0.16118l-0.16542-0.40298a0.6878 0.95503 0 0 0-0.9519-0.3546l-2.0112 1.6562a0.6878 0.95503 0 0 1-0.6849 0l-0.83001-0.64072a0.682 0.94697 0 0 0-0.61815-0.0362l-0.78938 0.49968a0.69361 0.96309 0 0 1-0.94319-0.58028l-0.51077-2.1115a0.682 0.94697 0 0 0-0.65589-0.66489h-0.74294a0.67329 0.93488 0 0 1-0.33374-0.12089l-2.8528-2.172a0.6907 0.95906 0 0 0-0.74294 0.0766l-2.0924 2.176a0.682 0.94697 0 0 1-0.41211 0.1894h-2.6322a0.682 0.94697 0 0 0-0.38018 0.16118l-0.49335 0.45535a0.6878 0.95503 0 0 1-0.99833-0.36669l-0.11899-0.32641a0.6849 0.951 0 0 0-0.61525-0.53191h-1.3205a0.6878 0.95503 0 0 0-0.5427 0.37073l-0.8184 1.4547a0.6878 0.95503 0 0 1-1.1231-0.0766l-0.23217-0.50371a0.6849 0.951 0 0 0-0.93448-0.30625l-0.67909 0.56415a0.6907 0.95906 0 0 1-0.75746-0.0443l-2.7367-2.7523a0.83001 1.1525 0 0 0-0.15671-0.12089l-2.1389-1.1404a0.6878 0.95503 0 0 0-0.87064 0.53192l-1.4888 5.0371a0.62105 0.86235 0 0 0-0.0435 0.22163l-0.48175 4.5374a0.6907 0.95906 0 0 1-0.17993 0.51177l-1.0186 1.5192a0.69361 0.96309 0 0 1-0.83871 0.18133l-1.7674-1.362a0.6878 0.95503 0 0 0-0.98672 0.52385l-1.1202 4.5495a0.65878 0.91473 0 0 0-0.0377 0.31028v2.8691a0.6878 0.95503 0 0 1-0.41501 0.87443l-1.7964 1.1041a0.6878 0.95503 0 0 1-0.62395-0.0564l-1.3524-1.1041a0.6878 0.95503 0 0 0-0.44693-0.12089l-2.371 0.47147a0.6849 0.951 0 0 1-0.6907-0.46744l-0.40049-0.951a0.682 0.94697 0 0 0-0.38889-0.42715l-1.0767-0.46743a0.6849 0.951 0 0 0-0.71682 0.26998l-1.4946 2.305a0.69651 0.96712 0 0 1-0.45563 0.31431l-2.2056 0.2579a0.65008 0.90264 0 0 0-0.2902 0.12089l-3.8453 3.0706a0.6907 0.95906 0 0 1-0.77196-0.0846l-1.0912-1.2089a0.69651 0.96712 0 0 0-0.42952-0.20954h-4.1326a0.682 0.94697 0 0 1-0.53689-0.35864l-1.0418-1.8053a0.6878 0.95503 0 0 0-1.0477-0.0403l-1.2537 1.9342a0.6878 0.95503 0 0 0-0.17702 0.63669v24.033a0.6878 0.95503 0 0 0 0.68779 0.95503h149.09a0.6878 0.95503 0 0 0 0.6878-0.95906l-0.0406-75.891a0.6907 0.95906 0 0 0-1.187-0.68101z" opacity=".3"/>
  <path d="m561.53 173.22-2.2462 2.0793a0.87064 1.2089 0 0 0-0.20606 0.26999l-1.3959 2.5588a0.87064 1.2089 0 0 1-0.71972 0.46745l-0.45564-0.0323a0.85322 1.1847 0 0 1-0.73423-0.6931l-0.29021-0.85832a0.84742 1.1767 0 0 0-1.5236-0.0685l-0.58043 1.5434a0.84742 1.1767 0 0 1-0.75165 0.6246h-2.8789a0.84452 1.1726 0 0 1-0.82421-0.89459l-0.6907-3.8403a0.85032 1.1807 0 0 0-1.4917-0.44729l-4.15 7.2856a0.84452 1.1726 0 0 1-1.0157 0.34252l-2.667-1.6723a0.85032 1.1807 0 0 0-0.87063 0.12491l-0.9548 0.97921a0.78938 1.0961 0 0 0-0.12479 0.16119l-2.519 3.8725a0.85032 1.1807 0 0 1-0.68491 0.40297l-1.6455-0.14507a0.91707 1.2734 0 0 0-0.267 0.0323l-1.483 0.52789a0.84742 1.1767 0 0 1-0.91416-0.4755l-0.16833-0.34655a0.85032 1.1807 0 0 0-0.72553-0.51177l-1.6542 0.0685a0.8184 1.1364 0 0 0-0.51948 0.27402l-0.40629 0.47147a0.85032 1.1807 0 0 1-1.2914-0.33446l-0.42951-1.08a0.85032 1.1807 0 0 0-1.1115-0.49565l-2.7831 1.8577-3.0792 2.2083a0.84452 1.1726 0 0 1-0.65587 0.0685l-2.4523-1.1283a0.87064 1.2089 0 0 0-0.34245-0.0564l-4.7479 0.56012a0.87064 1.2089 0 0 0-0.72552 0.77772l-0.68781 2.6676a0.85032 1.1807 0 0 1-1.2073 0.63669l-0.029-0.0202a0.84452 1.1726 0 0 0-1.0767 0.30625l-0.53981 0.95906a0.87064 1.2089 0 0 1-0.58042 0.44729l-1.4859 0.22164a0.87064 1.2089 0 0 0-0.24378 0.0846l-2.3536 1.3983a0.88805 1.2331 0 0 1-0.33375 0.0927h-1.1318a0.85032 1.1807 0 0 1-0.70231-0.5158l-0.16251-0.33043a0.85032 1.1807 0 0 0-0.9461-0.46341l-2.638 1.1082a0.85322 1.1847 0 0 1-0.55141-0.0282l-1.2247-0.65281a0.83581 1.1605 0 0 0-0.29022-0.0806h-2.6293a0.8155 1.1323 0 0 0-0.33084 0.0967l-2.6119 1.5393a0.84162 1.1686 0 0 1-0.58042 0.0443l-1.2914-0.53594a0.85322 1.1847 0 0 0-0.74584 0.1773l-0.56592 0.57624a0.85032 1.1807 0 0 1-1.1405-0.17327l-0.0842-0.13298a0.85032 1.1807 0 0 0-0.94029-0.3264l-2.104 1.1162a0.84742 1.1767 0 0 1-0.58043 0l-0.92287-0.45938a0.87064 1.2089 0 0 0-0.52238-0.0202l-0.87064 0.35058a0.85032 1.1807 0 0 1-0.99542-0.60445l-0.32505-0.90667a0.85322 1.1847 0 0 0-0.76035-0.6528h-0.75455a0.84162 1.1686 0 0 1-0.29021-0.0645l-2.9282-1.4265a0.84162 1.1686 0 0 0-0.65008 0.0483l-2.1389 1.4265a0.87064 1.2089 0 0 1-0.36856 0.11686h-2.7019a0.88805 1.2331 0 0 0-0.33375 0.0927l-0.55141 0.33043a0.85322 1.1847 0 0 1-1.0041-0.35864 0.84742 1.1767 0 0 0-0.67039-0.45535h-1.364a0.85322 1.1847 0 0 0-0.53979 0.26595l-0.79228 0.90265a0.84452 1.1726 0 0 1-1.1405-0.0806l-0.17993-0.24983a0.85032 1.1807 0 0 0-0.90836-0.27l-0.78938 0.42312a0.87064 1.2089 0 0 1-0.66459-0.0322l-2.7773-1.7892a0.6878 0.95503 0 0 0-0.15381-0.0725l-2.1795-0.74548a0.84452 1.1726 0 0 0-0.91706 0.50773l-1.3698 2.9658a0.87064 1.2089 0 0 0-0.1132 0.37073l-0.41499 2.5185a0.87064 1.2089 0 0 1-0.34827 0.70921l-0.90545 0.86235a0.84162 1.1686 0 0 1-0.76326 0.13701l-1.8632-0.91876a0.85032 1.1807 0 0 0-1.0419 0.58027l-0.98092 2.5468a0.87064 1.2089 0 0 0-0.0986 0.55609v1.1485a0.85322 1.1847 0 0 1-0.62396 1.1364l-1.631 0.62862a0.83581 1.1605 0 0 1-0.5253-0.0322l-1.422-0.74549a0.83581 1.1605 0 0 0-0.37727-0.0725l-2.4523 0.31029a0.84162 1.1686 0 0 1-0.70523-0.37879l-0.2902-0.44729a0.8242 1.1444 0 0 0-0.46145-0.36267l-1.1173-0.31432a0.87064 1.2089 0 0 0-0.66168 0.19746l-1.4714 1.4547a0.87064 1.2089 0 0 1-0.44692 0.21761l-2.255 0.16521a0.88805 1.2331 0 0 0-0.24957 0.0725l-3.915 2.0148a0.83001 1.1525 0 0 1-0.67909-0.0564l-1.1318-0.80593a0.85032 1.1807 0 0 0-0.38598-0.12895h-4.2081a0.85032 1.1807 0 0 1-0.53398-0.26193l-1.0186-1.1323a0.85032 1.1807 0 0 0-1.0244-0.0403l-1.0912 1.08a0.85322 1.1847 0 0 0-0.35696 0.96308v11.327a0.85032 1.1807 0 0 0 0.85032 1.1807h148.76a0.85032 1.1807 0 0 0 0.85031-1.1807l-0.0406-44.234a0.85032 1.1807 0 0 0-1.3205-0.99936z" opacity=".3"/>
  <ellipse cx="562.13" cy="172.92" rx="2.0315" ry="2.8208"/>
  <path d="m562 200.83-2.7599 1.2774a0.72263 1.0034 0 0 0-0.15091 0.10074l-1.5149 1.3902a0.64427 0.89459 0 0 1-0.37147 0.14507l-0.94319-0.0322a0.64427 0.89459 0 0 1-0.46435-0.29416l-0.58042-0.88653a0.64717 0.89861 0 0 0-0.92287-0.0524l-0.97802 1.2734a0.63847 0.88653 0 0 1-0.44113 0.24581h-3.3897a0.64137 0.89056 0 0 1-0.58042-0.49968l-0.77487-2.1478a0.64717 0.89861 0 0 0-0.92287-0.35864l-4.7972 4.2191a0.65298 0.90667 0 0 1-0.48755 0.11686l-3.2852-1.0276a0.62976 0.87444 0 0 0-0.36566 0.0323l-1.1986 0.61654a0.4092 0.56818 0 0 0-0.09 0.0564l-2.6496 2.039a0.66749 0.92682 0 0 1-0.33375 0.11284l-1.9618-0.0887a0.58042 0.80593 0 0 0-0.10152 0l-1.8864 0.33447a0.65878 0.91473 0 0 1-0.46434-0.16522l-0.38308-0.40297a0.63847 0.88653 0 0 0-0.39179-0.17327l-2.0692 0.0403a0.61525 0.85429 0 0 0-0.24088 0.0685l-0.92868 0.54401a0.65008 0.90264 0 0 1-0.68489-0.16522l-0.76036-0.93488a0.64427 0.89459 0 0 0-0.58042-0.20551l-3.1749 1.0638-3.2649 1.1726a0.63556 0.8825 0 0 1-0.26699 0l-2.757-0.63668a1.0303 1.4305 0 0 0-0.13349 0l-5.099 0.31834a0.64427 0.89459 0 0 0-0.49625 0.37476l-0.76907 1.4708a0.64427 0.89459 0 0 1-0.69651 0.34252l-0.82129-0.31431a0.65588 0.9107 0 0 0-0.51949 0.11283l-0.82129 0.72936a0.66459 0.92279 0 0 1-0.31344 0.13702l-1.7413 0.13298a0.58042 0.80593 0 0 0-0.0986 0l-2.5132 0.74548a0.72553 1.0074 0 0 1-0.1364 0.0202h-1.4743a0.64137 0.89056 0 0 1-0.38018-0.17327l-0.38308-0.40297a0.63556 0.8825 0 0 0-0.47595-0.16522l-3.1372 0.6528a0.6849 0.951 0 0 1-0.21765 0l-1.4743-0.40296a0.58042 0.80593 0 0 0-0.12188 0h-2.8296a0.69651 0.96712 0 0 0-0.1335 0l-2.8702 0.84623a0.62396 0.86638 0 0 1-0.23216 0l-1.7094-0.35864a0.66459 0.92279 0 0 0-0.31923 0.0483l-1.097 0.55609a0.63556 0.8825 0 0 1-0.54269-0.0645l-0.51949-0.40296a0.62686 0.87041 0 0 0-0.43821-0.10478l-2.6119 0.68908a0.64137 0.89056 0 0 1-0.23506 0l-1.2566-0.31029a0.70231 0.97518 0 0 0-0.20605 0l-1.3872 0.27805a0.63847 0.88653 0 0 1-0.5485-0.24984l-0.45852-0.60848a0.66168 0.91876 0 0 0-0.45854-0.26193h-1.0999a0.6791 0.94294 0 0 1-0.11031 0l-3.2097-0.78175a0.62396 0.86638 0 0 0-0.2641 0l-2.4262 0.80593a0.65008 0.90264 0 0 1-0.15091 0.0242h-2.9224a0.67039 0.93085 0 0 0-0.1335 0l-0.98962 0.29417a0.66168 0.91876 0 0 1-0.49626-0.0806l-0.27281-0.24581a0.65008 0.90264 0 0 0-0.34825-0.14104h-1.7674a0.64137 0.89056 0 0 0-0.24379 0.0685l-1.2363 0.70116a0.63556 0.8825 0 0 1-0.53399-0.0282l-0.65588-0.45938a0.65298 0.90667 0 0 0-0.41211-0.0806l-1.2943 0.34656a0.63847 0.88653 0 0 1-0.267 0l-3.0008-0.96712h-0.0667l-2.551-0.43924a0.65588 0.9107 0 0 0-0.47596 0.18537l-1.451 1.5635a0.63266 0.87847 0 0 0-0.18864 0.33044l-0.32505 1.0034a0.65298 0.90667 0 0 1-0.37727 0.4755l-1.1144 0.52789a0.60945 0.84623 0 0 1-0.32214 0.0362l-2.4784-0.61251a0.65008 0.90264 0 0 0-0.5543 0.22969l-0.98382 1.2774a0.64427 0.89459 0 0 0-0.20315 0.65683 0.64427 0.89459 0 0 1-0.55721 0.88653l-1.8602 0.35864a0.63266 0.87847 0 0 1-0.20896 0l-1.6832-0.44327a0.65008 0.90264 0 0 0-0.15091 0l-2.8122 0.17731a0.66459 0.92279 0 0 1-0.33954-0.1088l-0.49337-0.37476a0.61525 0.85429 0 0 0-0.24667-0.1088l-1.4772-0.20551a0.66168 0.91876 0 0 0-0.29021 0.0483l-1.7413 0.85832a0.66168 0.91876 0 0 1-0.20025 0.0524l-2.4755 0.0927a0.60074 0.83414 0 0 0-0.10164 0l-4.1936 1.0759a0.6791 0.94294 0 0 1-0.2757 0l-1.4278-0.50774a0.75455 1.0477 0 0 0-0.16251-0.0282h-4.5012a0.61525 0.85429 0 0 1-0.24087-0.0645l-1.4104-0.78175a0.64137 0.89056 0 0 0-0.45854 0l-1.3118 0.64878a0.64137 0.89056 0 0 0-0.4295 0.8422v0.40296a0.64427 0.89459 0 0 0 0.64426 0.89862h149.17a0.64427 0.89459 0 0 0 0.64426-0.89862l-0.0377-17.033a0.64717 0.89861 0 0 0-0.84451-0.89055z" opacity=".3"/>
  <ellipse cx="450.4" cy="191.86" rx="2.0315" ry="2.8208"/>
  <ellipse cx="547.91" cy="174.13" rx="2.0315" ry="2.8208"/>
  <ellipse cx="497.41" cy="193.07" rx="2.0315" ry="2.8208"/>
  <ellipse cx="523.82" cy="183" rx="2.0315" ry="2.8208"/>
 </g>
 <path d="m563.14 174.2a0.85032 1.1807 0 0 0-1.3205-0.97921l-2.2462 2.0793a0.87064 1.2089 0 0 0-0.20604 0.26999l-1.3959 2.5588a0.87064 1.2089 0 0 1-0.71972 0.46743l-0.45564-0.0322a0.85322 1.1847 0 0 1-0.73424-0.6931l-0.29021-0.85832a0.84742 1.1767 0 0 0-1.5236-0.0685l-0.58042 1.5434a0.84742 1.1767 0 0 1-0.75165 0.6246h-2.8789a0.84452 1.1726 0 0 1-0.82419-0.89459l-0.69071-3.8403a0.85032 1.1807 0 0 0-1.4917-0.44729l-4.15 7.2856a0.84452 1.1726 0 0 1-1.0158 0.34252l-2.667-1.6723a0.85032 1.1807 0 0 0-0.87065 0.12492l-0.9548 0.97921a0.78938 1.0961 0 0 0-0.12478 0.16119l-2.519 3.8725a0.85032 1.1807 0 0 1-0.68489 0.40297l-1.6455-0.14507a0.91707 1.2734 0 0 0-0.26699 0.0323l-1.483 0.52788a0.84742 1.1767 0 0 1-0.91417-0.47549l-0.16832-0.34655a0.85032 1.1807 0 0 0-0.72553-0.51177l-1.6542 0.0685a0.8184 1.1364 0 0 0-0.51949 0.27402l-0.4063 0.47147a0.85032 1.1807 0 0 1-1.2914-0.33446l-0.42952-1.08a0.85032 1.1807 0 0 0-1.1115-0.49565l-2.7831 1.8577-3.0792 2.2083a0.84452 1.1726 0 0 1-0.65588 0.0685l-2.4523-1.1283a0.87064 1.2089 0 0 0-0.34245-0.0564l-4.7479 0.56415a0.87064 1.2089 0 0 0-0.72554 0.77773l-0.6878 2.6676a0.85032 1.1807 0 0 1-1.2073 0.63669l-0.029-0.0202a0.84452 1.1726 0 0 0-1.0767 0.30625l-0.53979 0.95906a0.87064 1.2089 0 0 1-0.58042 0.4473l-1.4859 0.22163a0.87064 1.2089 0 0 0-0.24378 0.0846l-2.3536 1.3983a0.88805 1.2331 0 0 1-0.33374 0.0927h-1.1318a0.85032 1.1807 0 0 1-0.70232-0.5158l-0.16252-0.33043a0.85032 1.1807 0 0 0-0.94609-0.46341l-2.638 1.1082a0.85322 1.1847 0 0 1-0.55141-0.0282l-1.2247-0.65281a0.83581 1.1605 0 0 0-0.2902-0.0806h-2.6293a0.8155 1.1323 0 0 0-0.33085 0.0967l-2.6119 1.5393a0.84162 1.1686 0 0 1-0.58042 0.0443l-1.2914-0.53594a0.85322 1.1847 0 0 0-0.74585 0.1773l-0.56591 0.57624a0.85032 1.1807 0 0 1-1.1405-0.17327l-0.0842-0.13298a0.85032 1.1807 0 0 0-0.94029-0.3264l-2.104 1.1162a0.84742 1.1767 0 0 1-0.58042 0l-0.92287-0.45938a0.87064 1.2089 0 0 0-0.5224-0.0202l-0.87063 0.35058a0.85032 1.1807 0 0 1-0.99543-0.60445l-0.32503-0.90667a0.85322 1.1847 0 0 0-0.76036-0.6528h-0.75455a0.84162 1.1686 0 0 1-0.29021-0.0645l-2.9282-1.4265a0.84162 1.1686 0 0 0-0.65008 0.0483l-2.1389 1.4265a0.87064 1.2089 0 0 1-0.36857 0.11687h-2.7019a0.88805 1.2331 0 0 0-0.33374 0.0927l-0.5514 0.33043a0.85322 1.1847 0 0 1-1.0041-0.35864 0.84742 1.1767 0 0 0-0.67039-0.45535h-1.364a0.85322 1.1847 0 0 0-0.5398 0.26596l-0.79227 0.90264a0.84452 1.1726 0 0 1-1.1406-0.0806l-0.17993-0.24983a0.85032 1.1807 0 0 0-0.90836-0.26999l-0.78938 0.42311a0.87064 1.2089 0 0 1-0.66458-0.0322l-2.7773-1.7892a0.6878 0.95503 0 0 0-0.15381-0.0725l-2.1795-0.74549a0.84452 1.1726 0 0 0-0.91707 0.50774l-1.3698 2.9658a0.87064 1.2089 0 0 0-0.1132 0.37073l-0.41501 2.5185a0.87064 1.2089 0 0 1-0.34825 0.70922l-0.90546 0.86234a0.84162 1.1686 0 0 1-0.76326 0.13702l-1.8632-0.91877a0.85032 1.1807 0 0 0-1.0418 0.58027l-0.98092 2.5468a0.87064 1.2089 0 0 0-0.0986 0.55609v1.1485a0.85322 1.1847 0 0 1-0.62395 1.1364l-1.631 0.62863a0.83581 1.1605 0 0 1-0.52528-0.0322l-1.422-0.74549a0.83581 1.1605 0 0 0-0.37728-0.0725l-2.4523 0.31029a0.84162 1.1686 0 0 1-0.70521-0.37879l-0.29022-0.44729a0.8242 1.1444 0 0 0-0.46143-0.36267l-1.1173-0.31431a0.87064 1.2089 0 0 0-0.66169 0.19745l-1.4714 1.4547a0.87064 1.2089 0 0 1-0.44694 0.2176l-2.2549 0.16522a0.88805 1.2331 0 0 0-0.24959 0.0725l-3.915 2.0148a0.83001 1.1525 0 0 1-0.67911-0.0564l-1.1318-0.80593a0.85032 1.1807 0 0 0-0.38598-0.12895h-4.2081a0.85032 1.1807 0 0 1-0.53399-0.26193l-1.0186-1.1323a0.85032 1.1807 0 0 0-1.0244-0.0403l-1.0912 1.08a0.85322 1.1847 0 0 0-0.35696 0.96309" fill="none" stroke="#6c63ff" stroke-miterlimit="10" stroke-width=".34197"/>
 <rect x="403.96" y="236.17" width="169.77" height=".040297" fill="#f2f2f2" opacity=".2" stroke-width=".34197"/>
 <g fill="#6c63ff" stroke-width=".34197">
  <ellipse cx="430.08" cy="236.19" rx="1.4511" ry="2.0148" opacity=".3"/>
  <ellipse cx="451.27" cy="236.19" rx="1.4511" ry="2.0148" opacity=".3"/>
  <ellipse cx="472.45" cy="236.19" rx="1.4511" ry="2.0148" opacity=".3"/>
  <ellipse cx="493.64" cy="236.19" rx="1.4511" ry="2.0148" opacity=".3"/>
  <ellipse cx="514.83" cy="236.19" rx="1.4511" ry="2.0148" opacity=".3"/>
  <ellipse cx="536.01" cy="236.19" rx="1.4511" ry="2.0148" opacity=".3"/>
 </g>
 <path transform="translate(-79.34 -172.91)" d="M552.52,364.84a9.47,9.47,0,0,1-8.32-1.75l2.08,2.89a8.47,8.47,0,0,1-6.78-2.25,34.08,34.08,0,0,0,.32,7.75,14.52,14.52,0,0,1-9.56-3,4.42,4.42,0,0,0,2.64,4.31,14.34,14.34,0,0,0-15.6,10.71l5.22.48a18.47,18.47,0,0,0-10.44,6.37c-1.6,2-2.82,4.56-2.12,7s4.08,4,5.92,2.26a27.94,27.94,0,0,0-6.1,22.79,14.47,14.47,0,0,1,.46,5.26c-.33,1.65-1.37,3.08-1.89,4.69-1,2.92-.05,6.09.84,9l4.69,15.42c1.7,5.57,3.39,11.15,5.61,16.54a82.08,82.08,0,0,1,4,10.51c1.26,4.84,1.31,10.14,4,14.37a19.93,19.93,0,0,0,7.18,6.33c9.89,5.66,21.84,6.86,33.16,5.5s22.18-5.11,32.95-8.83a31,31,0,0,0,6.84-3c7.45-4.88,9.11-14.86,10.5-23.65,1.55-9.8,3.62-19.58,7.29-28.8,2.18-5.49,5-11.06,4.52-16.94-.61-7.81-6.79-14.14-8.32-21.82a19,19,0,0,1,.07-7.77,17.66,17.66,0,0,0,.79-4.7c-.17-3.22-2.81-5.7-5.29-7.77Q609.11,380,600.52,374c-.29-2,2.43-2.86,3.66-4.44,1.74-2.23-.06-5.77-2.7-6.81s-5.6-.36-8.35.33a6.59,6.59,0,0,0-11.55-5.11,10.2,10.2,0,0,0-8.42-6.08c-6.63-.52-6.76,4.55-11,7.34s-7.74-.89-11-3.57A9.28,9.28,0,0,0,552.52,364.84Z" fill="#523d2d"/>
 <ellipse cx="557.2" cy="236.19" rx="1.4511" ry="2.0148" fill="#6c63ff" opacity=".3" stroke-width=".34197"/>
 <path d="m635.95 112.8 156.01-8.1632 2.0156 24.49-155.2 7.3039z" fill="none" opacity=".49495" stroke="#0ba38b" stroke-width=".458"/>
 <path d="m648.47 132.92 10.618-9.8312 3.146 2.3595 8.6514-6.292 8.6514-2.3595 5.1122 5.1122 4.3257 6.292h3.146l6.292-3.146 3.146 2.3595 8.6514-5.1122 2.7527 2.3595 8.6514-6.6852 3.5392 3.5392 5.8987-5.8987 4.719 10.618 3.9325-3.9325 5.1122 5.8987 8.6514-7.4717 2.3595 3.9325 8.2582-7.4717 3.146 4.719 6.6852-7.4717 5.1122 5.5055 5.5055-5.5055 3.146 3.146" fill="none" opacity=".404" stroke="#f1e800" stroke-width="1px"/>
 <g fill="none" stroke="#00a300" stroke-width="1px">
  <path d="m640.67 145.71 4.8662-0.13903"/>
  <path d="m648.52 145.5 4.8662-0.13903"/>
  <g transform="translate(.27807 2.9197)">
   <path d="m640.67 145.71 4.8662-0.13903"/>
   <path d="m648.52 145.5 4.8662-0.13903"/>
  </g>
  <g transform="translate(.8342 6.3956)">
   <path d="m640.67 145.71 4.8662-0.13903"/>
   <path d="m648.52 145.5 4.8662-0.13903"/>
  </g>
 </g>
 <g transform="translate(1.1797 10.028)" fill="none" stroke="#00a300" stroke-width="1px">
  <path d="m640.67 145.71 4.8662-0.13903"/>
  <path d="m648.52 145.5 4.8662-0.13903"/>
  <g transform="translate(.27807 2.9197)">
   <path d="m640.67 145.71 4.8662-0.13903"/>
   <path d="m648.52 145.5 4.8662-0.13903"/>
  </g>
  <g transform="translate(.8342 6.3956)">
   <path d="m640.67 145.71 4.8662-0.13903"/>
   <path d="m648.52 145.5 4.8662-0.13903"/>
  </g>
 </g>
 <g transform="translate(2.5561 20.252)" fill="none" stroke="#00a300" stroke-width="1px">
  <path d="m640.67 145.71 4.8662-0.13903"/>
  <path d="m648.52 145.5 4.8662-0.13903"/>
  <g transform="translate(.27807 2.9197)">
   <path d="m640.67 145.71 4.8662-0.13903"/>
   <path d="m648.52 145.5 4.8662-0.13903"/>
  </g>
  <g transform="translate(.8342 6.3956)">
   <path d="m640.67 145.71 4.8662-0.13903"/>
   <path d="m648.52 145.5 4.8662-0.13903"/>
  </g>
 </g>
 <g fill="none" stroke-width="1px">
  <path d="m667.54 141.37 114.24-5.1122" stroke="#ad6d00"/>
  <path d="m667.93 150.25 114.24-5.1122" stroke="#ad6d00"/>
  <path d="m669.86 167.71 47.78-1.1797" stroke="#00e9f0"/>
  <path d="m777.48 165.35-38.932 0.7865" stroke="#00e9f0"/>
 </g>
 <g>
  <rect x="601.98" y="322.38" width="51.844" height="48.231" ry="1.8873" fill="#fff" opacity=".49495" stroke="#00090d" stroke-width=".419"/>
  <path d="m611.19 337.96c0-0.27807 25.582-0.27807 25.582-0.27807" fill="none" stroke="#000"/>
  <path d="m611.19 335.96c0-0.27807 25.582-0.27807 25.582-0.27807" fill="none" stroke="#000"/>
 </g>
 <g fill="none" stroke="#000">
  <path d="m611.19 333.96c0-0.27807 25.582-0.27807 25.582-0.27807"/>
  <path d="m611.19 339.96c0-0.27807 25.582-0.27807 25.582-0.27807"/>
 </g>
 <rect x="660.19" y="325.08" width="51.844" height="48.231" ry="1.8873" fill="#fff" opacity=".49495" stroke="#00090d" stroke-width=".419"/>
 <rect x="659.89" y="381.8" width="109.85" height="48.042" ry="1.8799" fill="#fff" opacity=".49495" stroke="#00090d" stroke-width=".60872"/>
 <g fill="none">
  <path d="m611.19 333.96c0-0.27807 25.582-0.27807 25.582-0.27807" stroke="#000"/>
  <path d="m611.19 339.96c0-0.27807 25.582-0.27807 25.582-0.27807" stroke="#000"/>
  <g stroke="#a7c0d6" stroke-width="1px">
   <path d="m668.13 333.87h36.179"/>
   <path d="m668.13 337.87h36.179"/>
   <path d="m668.13 341.87h36.179"/>
   <path d="m668.13 345.87h36.179"/>
   <path d="m668.13 349.87h36.179"/>
   <path d="m668.13 353.87h36.179"/>
   <path d="m668.13 357.87h36.179"/>
   <path d="m668.13 361.87h36.179"/>
   <path d="m668.13 365.87h36.179"/>
  </g>
  <g stroke="#d4da00" stroke-width="1px">
   <path d="m666.95 389.32h23.202" opacity=".42424"/>
   <path d="m666.95 391.32h23.202" opacity=".42424"/>
   <path d="m666.95 393.32h23.202" opacity=".42424"/>
   <path d="m666.95 395.32h23.202" opacity=".42424"/>
   <path d="m666.95 397.32h23.202" opacity=".42424"/>
   <path d="m666.95 399.32h23.202" opacity=".42424"/>
  </g>
  <g stroke="#000" stroke-width=".8">
   <path d="m695.31 389.85 33.229 0.13904" opacity=".33333"/>
   <path d="m695.31 391.85 33.229 0.13904" opacity=".33333"/>
   <path d="m695.31 393.85 33.229 0.13904" opacity=".33333"/>
   <path d="m695.31 395.85 33.229 0.13904" opacity=".33333"/>
   <path d="m695.31 397.85 33.229 0.13904" opacity=".33333"/>
   <path d="m695.31 399.85 33.229 0.13904" opacity=".33333"/>
   <path d="m695.31 401.85 33.229 0.13904" opacity=".33333"/>
   <path d="m695.31 403.85 33.229 0.13904" opacity=".33333"/>
   <path d="m695.31 405.85 33.229 0.13904" opacity=".33333"/>
   <path d="m695.31 407.85 33.229 0.13904" opacity=".33333"/>
   <path d="m695.31 409.85 33.229 0.13904" opacity=".33333"/>
   <path d="m695.31 411.85 33.229 0.13904" opacity=".33333"/>
   <path d="m695.31 413.85 33.229 0.13904" opacity=".33333"/>
   <path d="m695.31 415.85 33.229 0.13904" opacity=".33333"/>
   <path d="m695.31 417.85 33.229 0.13904" opacity=".33333"/>
   <path d="m695.31 419.85 33.229 0.13904" opacity=".33333"/>
  </g>
 </g>
 <ellipse transform="rotate(16.51)" cx="337.94" cy="50.285" rx="21.213" ry="26.163" fill="#fff" opacity=".55892"/>
 <g fill="#fff" stroke="#d4da00">
  <path d="m176.63 175.59 5.2249 0.37681c0.80731 0.0582 1.4532 0.7006 1.4483 1.4403l-0.18415 27.516c-5e-3 0.73972-0.65887 1.2884-1.4662 1.2302l-5.2249-0.37679c-0.80729-0.0582-1.4532-0.7006-1.4483-1.4403l0.18417-27.516c5e-3 -0.73971 0.65886-1.2884 1.4662-1.2302z" opacity=".3" stroke-width=".59376"/>
  <path d="m190.75 183.98 5.202 0.0728c0.80378 0.0113 1.4372 0.46509 1.4202 1.0176l-0.632 20.551c-0.017 0.55246-0.67776 0.98819-1.4816 0.97693l-5.202-0.0728c-0.80377-0.0113-1.4372-0.46508-1.4202-1.0176l0.63201-20.551c0.017-0.55247 0.67775-0.98818 1.4815-0.97694z" opacity=".3" stroke-width=".512"/>
  <path d="m203.14 177.58 5.2213 0.42339c0.80676 0.0654 1.4469 0.71354 1.4354 1.4532l-0.42961 27.514c-0.0116 0.73964-0.67034 1.2824-1.4771 1.217l-5.2213-0.42338c-0.80674-0.0654-1.4469-0.71356-1.4354-1.4532l0.42963-27.514c0.0115-0.73963 0.67033-1.2824 1.4771-1.217z" opacity=".3" stroke-width=".59376"/>
  <path d="m216.33 177.19 5.211 0.53553c0.80517 0.0827 1.4313 0.74449 1.4038 1.4837l-1.021 27.498c-0.0274 0.73922-0.69775 1.2677-1.5029 1.185l-5.211-0.53552c-0.80515-0.0827-1.4313-0.74448-1.4038-1.4837l1.021-27.498c0.0275-0.73922 0.69774-1.2677 1.5029-1.185z" opacity=".3" stroke-width=".59376"/>
 </g>
 <path d="m309.36 143.54-18.778-8.2586c-3.7225 7.3725-4.2126 24.642 6.4032 31.24z" fill="#66a2d5"/>
 <path d="m309.36 143.54 21.585-7.1961c1.4862 6.405-0.62873 12.48-2.6841 18.965-3.3309 10.508-21.609 20.821-31.275 11.212z" fill="#7973b4"/>
 <path d="m309.36 143.54-12.374 22.981 15.306 2.9375z" fill="none"/>
</svg>
